<svg width="3007" height="544" viewBox="0 0 3007 544" fill="none" xmlns="http://www.w3.org/2000/svg">
<path d="M121.258 0C124.019 0 126.258 2.23858 126.258 5V16H149.976V5C149.976 2.23875 152.213 0.000280258 154.975 0H179.233C181.995 0.000175956 184.233 2.23868 184.233 5V16H195.95L558.666 245.029H571V234C571 231.239 573.239 229 576 229H600.258C603.019 229 605.258 231.239 605.258 234V245.029H628.975V234C628.975 231.239 631.213 229 633.975 229H658.232C660.994 229 663.232 231.239 663.232 234V245.029H686.95V234C686.95 231.239 689.188 229 691.949 229H716.208C718.969 229 721.208 231.239 721.208 234V245.029H738.982V129.991H1025.61V245.029H1110.91V233.664C1110.91 230.903 1113.15 228.664 1115.91 228.664H1140.17C1142.93 228.664 1145.17 230.903 1145.17 233.664V245.029H1168.89V233.664C1168.89 230.903 1171.13 228.664 1173.89 228.664H1198.15C1200.91 228.664 1203.15 230.903 1203.15 233.664V245.029H1226.86V233.664C1226.86 230.903 1229.1 228.664 1231.86 228.664H1256.12C1258.88 228.664 1261.12 230.903 1261.12 233.664V245.029H1739.58V351.135H2013.7V245.029H2301V237C2301 234.239 2303.24 232 2306 232H2330.26C2333.02 232 2335.26 234.239 2335.26 237V245.029H2345.15L2490.03 351.135L3007 406.629V543.697H0V16H92V5C92 2.23859 94.2386 1.64934e-05 97 0H121.258Z" fill="#6FCDCC"/>
</svg>
