<svg width="3007" height="521" viewBox="0 0 3007 521" fill="none" xmlns="http://www.w3.org/2000/svg">
<path d="M2799.15 41.5361H3005.96L3007 521H0V157.593H302V147C302 144.239 304.239 142 307 142H325C327.761 142 330 144.239 330 147V157.593H351V147C351 144.239 353.239 142 356 142H374C376.761 142 379 144.239 379 147V157.593H396.895V192.845H900.324L1252.31 113.613V38.2783H1271V27C1271 24.2386 1273.24 22 1276 22H1294C1296.76 22 1299 24.2386 1299 27V38.2783H1320V27C1320 24.2386 1322.24 22 1325 22H1343C1345.76 22 1348 24.2386 1348 27V38.2783H1365V27C1365 24.2386 1367.24 22 1370 22H1388C1390.76 22 1393 24.2386 1393 27V38.2783H1414V27C1414 24.2386 1416.24 22 1419 22H1437C1439.76 22 1442 24.2386 1442 27V38.2783H1469.55V69.2266H1800.65V113.613H2226.79V69.2266H2383.69L2506.7 41.5361H2509V28C2509 25.2386 2511.24 23 2514 23H2532C2534.76 23 2537 25.2386 2537 28V41.5361H2699.93V0H2799.15V41.5361Z" fill="#F8F9FA"/>
</svg>
